<svg class="logo" version="1.1" width="100%" height="100%" viewBox="0 0 200.000000 200.000000"
     xmlns="http://www.w3.org/2000/svg" style="display: block;" preserveAspectRatio="xMidYMid meet">
    <g class="logo-group" transform="translate(0.000000,200.000000) scale(0.100000,-0.100000)"
       fill="#ffffff" stroke="none">
        <path class="logo-path-1"
              d="M0 1000 l0 -1000 1000 0 1000 0 0 1000 0 1000 -1000 0 -1000 0 0 -1000z m1870 0 l0 -870 -870 0 -870 0 0 870 0 870 870 0 870 0 0 -870z"
              stroke="none" fill="#ff0000" fill-rule="evenodd" />
        <path class="logo-path-2"
              d="M880 1125 l0 -555 -170 0 -170 0 0 165 0 165 130 0 130 0 0 120 0 120 -250 0 -250 0 0 -405 0 -405 410 0 410 0 0 675 0 675 -120 0 -120 0 0 -555z"
              stroke="none" fill="#0000ff" fill-rule="evenodd" />
        <path class="logo-path-3"
              d="M1200 1020 l0 -120 125 0 125 0 0 -285 0 -285 120 0 120 0 0 405 0 405 -245 0 -245 0 0 -120z"
              stroke="none" fill="#ffff00" fill-rule="evenodd" />
    </g>
</svg>